<svg xmlns="http://www.w3.org/2000/svg" xmlns:xlink="http://www.w3.org/1999/xlink" width="500" zoomAndPan="magnify" viewBox="0 0 375 374.999991" height="500" preserveAspectRatio="xMidYMid meet" version="1.0"><defs><g/><clipPath id="52305891b2"><path d="M 101 32 L 266 32 L 266 245 L 101 245 Z M 101 32 " clip-rule="nonzero"/></clipPath><clipPath id="c1b01ca409"><path d="M 89.609375 50.453125 L 251.578125 26.222656 L 282.335938 231.792969 L 120.367188 256.027344 Z M 89.609375 50.453125 " clip-rule="nonzero"/></clipPath><clipPath id="12d6f52e6a"><path d="M 89.609375 50.453125 L 251.578125 26.222656 L 282.335938 231.792969 L 120.367188 256.027344 Z M 89.609375 50.453125 " clip-rule="nonzero"/></clipPath><clipPath id="ddbe2b2d2f"><path d="M 146 110 L 222 110 L 222 218 L 146 218 Z M 146 110 " clip-rule="nonzero"/></clipPath><clipPath id="16828b66cf"><path d="M 89.609375 50.453125 L 251.578125 26.222656 L 282.335938 231.792969 L 120.367188 256.027344 Z M 89.609375 50.453125 " clip-rule="nonzero"/></clipPath><clipPath id="1bed28c05c"><path d="M 89.609375 50.453125 L 251.578125 26.222656 L 282.335938 231.792969 L 120.367188 256.027344 Z M 89.609375 50.453125 " clip-rule="nonzero"/></clipPath><clipPath id="094521018d"><path d="M 40.820312 234.0625 L 338 234.0625 L 338 315.945312 L 40.820312 315.945312 Z M 40.820312 234.0625 " clip-rule="nonzero"/></clipPath><clipPath id="f276de6e66"><path d="M 81.671875 234.0625 L 296.640625 234.0625 C 319.203125 234.0625 337.492188 252.351562 337.492188 274.914062 C 337.492188 297.476562 319.203125 315.769531 296.640625 315.769531 L 81.671875 315.769531 C 59.109375 315.769531 40.820312 297.476562 40.820312 274.914062 C 40.820312 252.351562 59.109375 234.0625 81.671875 234.0625 Z M 81.671875 234.0625 " clip-rule="nonzero"/></clipPath><clipPath id="5d6bec7d63"><path d="M 55.066406 247.640625 L 206.359375 247.640625 L 206.359375 302.191406 L 55.066406 302.191406 Z M 55.066406 247.640625 " clip-rule="nonzero"/></clipPath><clipPath id="638ea3ac30"><path d="M 82.34375 247.640625 L 179.050781 247.640625 C 194.117188 247.640625 206.328125 259.851562 206.328125 274.917969 C 206.328125 289.980469 194.117188 302.191406 179.050781 302.191406 L 82.34375 302.191406 C 67.277344 302.191406 55.066406 289.980469 55.066406 274.917969 C 55.066406 259.851562 67.277344 247.640625 82.34375 247.640625 Z M 82.34375 247.640625 " clip-rule="nonzero"/></clipPath></defs><g clip-path="url(#52305891b2)"><g clip-path="url(#c1b01ca409)"><g clip-path="url(#12d6f52e6a)"><path fill="#283389" d="M 251.453125 82.429688 C 247.074219 68.449219 239.335938 51.453125 230.761719 41.761719 C 226.910156 37.40625 222.726562 34.339844 218.3125 33.261719 C 213.125 31.992188 208.121094 33.316406 203.585938 38.148438 C 199.308594 42.703125 195.460938 50.851562 192.386719 63.722656 L 156.839844 69.042969 C 150.132812 57.632812 144.066406 50.972656 138.644531 47.867188 C 132.894531 44.574219 127.726562 44.769531 123.132812 47.503906 C 119.234375 49.824219 116.125 53.984375 113.71875 59.277344 C 108.320312 71.140625 105.894531 89.855469 105.835938 104.5625 C 102.101562 113.644531 100.6875 123.804688 102.238281 134.171875 L 103.074219 139.742188 C 106.515625 162.761719 123.644531 180.527344 144.941406 185.988281 C 144.882812 190.417969 145.140625 194.703125 145.714844 198.804688 C 147.433594 211.128906 151.980469 221.707031 159.015625 229.550781 C 166.238281 237.605469 175.953125 242.714844 187.804688 243.847656 C 191.96875 244.246094 196.421875 244.140625 201.148438 243.480469 L 201.234375 243.46875 C 205.949219 242.714844 210.234375 241.511719 214.101562 239.914062 C 225.101562 235.355469 232.898438 227.632812 237.445312 217.816406 C 241.871094 208.261719 243.128906 196.816406 241.164062 184.523438 C 240.507812 180.4375 239.507812 176.265625 238.15625 172.046875 C 244.433594 168.214844 249.863281 163.203125 254.179688 157.371094 C 262.769531 145.769531 266.945312 130.898438 264.652344 115.574219 L 263.820312 110 C 262.246094 99.484375 257.824219 90.074219 251.453125 82.429688 Z M 211.769531 45.824219 C 213.171875 44.332031 214.480469 43.867188 215.675781 44.160156 C 217.65625 44.644531 219.945312 46.484375 222.355469 49.210938 C 226.5625 53.972656 230.597656 60.933594 234.03125 68.386719 C 231.78125 67.214844 229.445312 66.191406 227.046875 65.324219 C 227.046875 65.324219 227.050781 65.320312 227.050781 65.320312 C 220.957031 53.328125 214.453125 48.027344 210.210938 62.039062 C 208.28125 61.964844 206.335938 61.988281 204.371094 62.117188 C 206.648438 53.808594 209.152344 48.605469 211.769531 45.824219 Z M 123.941406 63.929688 C 125.445312 60.621094 127.09375 58.191406 128.847656 57.148438 C 129.910156 56.515625 131.296875 56.578125 133.070312 57.59375 C 136.378906 59.492188 140.304688 63.734375 144.917969 71.019531 C 143.378906 71.386719 141.859375 71.816406 140.378906 72.304688 C 132.429688 60.59375 127.816406 67.109375 125.46875 79.84375 C 122.933594 81.644531 120.558594 83.648438 118.371094 85.824219 C 119.46875 77.640625 121.292969 69.746094 123.941406 63.929688 Z M 227.261719 213.109375 C 223.90625 220.363281 218.085938 226.097656 209.832031 229.511719 C 206.714844 230.800781 203.28125 231.769531 199.53125 232.375 C 195.769531 232.894531 192.203125 232.976562 188.84375 232.652344 C 179.953125 231.800781 172.707031 228.019531 167.375 222.070312 C 161.847656 215.90625 158.238281 207.363281 156.828125 197.230469 C 156.402344 194.1875 156.183594 190.996094 156.167969 187.675781 C 159.769531 187.847656 163.4375 187.671875 167.125 187.121094 L 187.953125 184.003906 L 189.386719 193.597656 C 187.160156 194.671875 185.257812 196.277344 183.820312 198.21875 C 181.515625 201.335938 180.398438 205.332031 181.015625 209.464844 C 181.632812 213.601562 183.871094 217.097656 186.988281 219.398438 C 190.105469 221.703125 194.101562 222.824219 198.238281 222.203125 C 202.371094 221.585938 205.867188 219.351562 208.171875 216.230469 C 210.476562 213.113281 211.59375 209.117188 210.976562 204.984375 C 210.355469 200.851562 208.117188 197.355469 205 195.050781 C 203.058594 193.613281 200.769531 192.636719 198.324219 192.257812 L 196.890625 182.667969 L 217.265625 179.617188 C 220.960938 179.066406 224.515625 178.160156 227.910156 176.941406 C 228.871094 180.121094 229.585938 183.234375 230.074219 186.265625 C 231.691406 196.367188 230.742188 205.59375 227.261719 213.109375 Z M 194.421875 196.710938 C 197.328125 196.277344 200.132812 197.0625 202.324219 198.679688 C 204.511719 200.304688 206.082031 202.757812 206.515625 205.660156 C 206.949219 208.566406 206.167969 211.371094 204.550781 213.5625 C 202.929688 215.753906 200.476562 217.324219 197.570312 217.757812 C 194.667969 218.191406 191.859375 217.410156 189.671875 215.789062 C 187.480469 214.171875 185.914062 211.710938 185.476562 208.808594 C 185.042969 205.90625 185.828125 203.097656 187.445312 200.90625 C 189.066406 198.714844 191.519531 197.144531 194.421875 196.710938 Z M 253.507812 117.234375 C 255.34375 129.484375 251.992188 141.378906 245.121094 150.671875 C 238.25 159.964844 227.859375 166.644531 215.605469 168.476562 L 165.460938 175.980469 C 140.945312 179.648438 117.882812 162.589844 114.214844 138.074219 L 113.382812 132.503906 C 111.550781 120.253906 114.902344 108.359375 121.769531 99.066406 C 128.644531 89.78125 139.035156 83.09375 151.289062 81.261719 L 201.433594 73.757812 C 225.949219 70.089844 249.007812 87.148438 252.675781 111.664062 Z M 234.054688 115.214844 L 234.664062 119.285156 C 236 128.238281 233.554688 136.933594 228.53125 143.722656 C 223.507812 150.515625 215.910156 155.398438 206.957031 156.738281 L 170.300781 162.222656 C 152.378906 164.90625 135.523438 152.4375 132.84375 134.515625 L 132.234375 130.441406 C 130.894531 121.484375 133.339844 112.792969 138.363281 106.003906 C 143.386719 99.214844 150.984375 94.328125 159.941406 92.988281 L 196.597656 87.503906 C 214.515625 84.828125 231.371094 97.296875 234.054688 115.214844 Z M 234.054688 115.214844 " fill-opacity="1" fill-rule="evenodd"/></g></g></g><g clip-path="url(#ddbe2b2d2f)"><g clip-path="url(#16828b66cf)"><g clip-path="url(#1bed28c05c)"><path fill="#1ae5be" d="M 202.324219 198.675781 C 204.507812 200.296875 206.082031 202.753906 206.515625 205.65625 C 206.949219 208.558594 206.164062 211.367188 204.550781 213.558594 C 202.929688 215.75 200.476562 217.320312 197.570312 217.753906 C 194.667969 218.1875 191.859375 217.402344 189.667969 215.785156 C 187.480469 214.167969 185.910156 211.707031 185.476562 208.804688 C 185.042969 205.898438 185.828125 203.09375 187.441406 200.902344 C 189.058594 198.710938 191.515625 197.140625 194.421875 196.707031 C 197.332031 196.277344 200.136719 197.058594 202.324219 198.675781 Z M 164.140625 118.289062 C 162.167969 117.632812 160.125 117.507812 158.160156 117.84375 C 156.203125 118.179688 154.332031 118.980469 152.695312 120.175781 C 149.019531 122.863281 146.492188 127.546875 146.84375 133.5 C 146.878906 134.09375 147.140625 134.597656 147.605469 134.964844 C 148.070312 135.335938 148.621094 135.476562 149.210938 135.378906 L 149.644531 135.304688 C 150.667969 135.132812 151.386719 134.226562 151.332031 133.195312 C 151.097656 128.925781 152.820312 125.640625 155.335938 123.804688 C 156.417969 123.015625 157.640625 122.488281 158.90625 122.269531 C 160.160156 122.050781 161.46875 122.132812 162.730469 122.554688 C 165.804688 123.578125 168.640625 126.636719 170.007812 132.304688 C 170.253906 133.34375 171.257812 134.007812 172.3125 133.832031 L 172.734375 133.765625 C 173.3125 133.667969 173.769531 133.371094 174.09375 132.882812 C 174.417969 132.394531 174.511719 131.859375 174.378906 131.289062 C 172.601562 123.871094 168.570312 119.765625 164.140625 118.289062 Z M 212.035156 111.300781 C 210.117188 110.636719 208.09375 110.421875 206.128906 110.671875 C 204.148438 110.925781 202.230469 111.644531 200.539062 112.847656 C 196.734375 115.554688 194.082031 120.660156 194.554688 128.28125 C 194.589844 128.863281 194.84375 129.347656 195.292969 129.722656 C 195.746094 130.09375 196.273438 130.242188 196.851562 130.167969 L 197.277344 130.105469 C 198.332031 129.96875 199.097656 129.035156 199.03125 127.972656 C 198.679688 122.15625 200.496094 118.398438 203.136719 116.515625 C 204.21875 115.746094 205.445312 115.285156 206.707031 115.125 C 207.984375 114.964844 209.308594 115.109375 210.574219 115.550781 C 213.515625 116.570312 216.128906 119.207031 217.152344 123.355469 C 217.398438 124.363281 218.351562 125.015625 219.382812 124.878906 L 219.816406 124.824219 C 220.410156 124.746094 220.890625 124.457031 221.226562 123.960938 C 221.5625 123.46875 221.667969 122.914062 221.523438 122.335938 C 220.125 116.527344 216.335938 112.792969 212.035156 111.300781 Z M 212.035156 111.300781 " fill-opacity="1" fill-rule="nonzero"/></g></g></g><g clip-path="url(#094521018d)"><g clip-path="url(#f276de6e66)"><path stroke-linecap="butt" transform="matrix(1.25976, 0, 0, 1.25976, 40.820191, 234.062694)" fill="none" stroke-linejoin="miter" d="M 32.428153 -0.00015418 L 203.0708 -0.00015418 C 220.98096 -0.00015418 235.498856 14.517742 235.498856 32.427902 C 235.498856 50.338062 220.98096 64.859059 203.0708 64.859059 L 32.428153 64.859059 C 14.517993 64.859059 0.000096749 50.338062 0.000096749 32.427902 C 0.000096749 14.517742 14.517993 -0.00015418 32.428153 -0.00015418 Z M 32.428153 -0.00015418 " stroke="#283389" stroke-width="10.716328" stroke-opacity="1" stroke-miterlimit="4"/></g></g><g clip-path="url(#5d6bec7d63)"><g clip-path="url(#638ea3ac30)"><path fill="#283389" d="M 55.066406 247.640625 L 206.359375 247.640625 L 206.359375 302.191406 L 55.066406 302.191406 Z M 55.066406 247.640625 " fill-opacity="1" fill-rule="nonzero"/></g></g><g fill="#1ae5be" fill-opacity="1"><g transform="translate(93.937506, 285.634489)"><g><path d="M 0.4375 0 L 7.953125 -18.25 L 10.09375 -18.25 L 17.59375 0 L 15.171875 0 L 13.453125 -4.140625 L 4.5625 -4.140625 L 2.890625 0 Z M 5.453125 -6.28125 L 12.59375 -6.28125 L 9.015625 -15.03125 Z M 5.453125 -6.28125 "/></g></g></g><g fill="#1ae5be" fill-opacity="1"><g transform="translate(113.953068, 285.634489)"><g><path d="M 2.65625 0 L 2.65625 -18.25 L 4.953125 -18.25 L 4.953125 -10.40625 L 7.5625 -10.40625 C 8.789062 -10.40625 9.71875 -10.625 10.34375 -11.0625 C 10.96875 -11.507812 11.460938 -12.226562 11.828125 -13.21875 L 13.703125 -18.25 L 16.125 -18.25 L 13.890625 -12.296875 C 13.628906 -11.609375 13.3125 -11.003906 12.9375 -10.484375 C 12.5625 -9.972656 12.113281 -9.546875 11.59375 -9.203125 L 16.84375 0 L 14.171875 0 L 9.453125 -8.359375 C 8.878906 -8.253906 8.25 -8.203125 7.5625 -8.203125 L 4.953125 -8.203125 L 4.953125 0 Z M 2.65625 0 "/></g></g></g><g fill="#1ae5be" fill-opacity="1"><g transform="translate(133.760125, 285.634489)"><g><path d="M 7.296875 0 L 7.296875 -6.5625 L 0.4375 -18.25 L 3.09375 -18.25 L 6.078125 -13.140625 L 8.4375 -9.015625 L 13.8125 -18.25 L 16.390625 -18.25 L 9.53125 -6.5625 L 9.53125 0 Z M 7.296875 0 "/></g></g></g><g fill="#1ae5be" fill-opacity="1"><g transform="translate(152.57686, 285.634489)"><g><path d="M 0.4375 0 L 7.953125 -18.25 L 10.09375 -18.25 L 17.59375 0 L 15.171875 0 L 13.453125 -4.140625 L 4.5625 -4.140625 L 2.890625 0 Z M 5.453125 -6.28125 L 12.59375 -6.28125 L 9.015625 -15.03125 Z M 5.453125 -6.28125 "/></g></g></g><g fill="#1ae5be" fill-opacity="1"><g transform="translate(172.592424, 285.634489)"><g><path d="M 2.65625 0 L 2.65625 -18.25 L 4.828125 -18.25 L 14.90625 -3.96875 L 14.90625 -18.25 L 17.15625 -18.25 L 17.15625 0 L 15.015625 0 L 4.921875 -14.28125 L 4.921875 0 Z M 2.65625 0 "/></g></g></g><g fill="#283389" fill-opacity="1"><g transform="translate(210.179663, 285.634489)"><g><path d="M 1.921875 0 L 1.921875 -18.25 L 9.609375 -18.25 C 11.160156 -18.25 12.503906 -17.96875 13.640625 -17.40625 C 14.773438 -16.851562 15.648438 -16.0625 16.265625 -15.03125 C 16.890625 -14.007812 17.203125 -12.796875 17.203125 -11.390625 C 17.203125 -9.992188 16.890625 -8.78125 16.265625 -7.75 C 15.648438 -6.71875 14.773438 -5.921875 13.640625 -5.359375 C 12.503906 -4.796875 11.160156 -4.515625 9.609375 -4.515625 L 7.1875 -4.515625 L 7.1875 0 Z M 7.140625 -8.90625 L 9.125 -8.90625 C 9.988281 -8.90625 10.664062 -9.125 11.15625 -9.5625 C 11.644531 -10 11.890625 -10.597656 11.890625 -11.359375 C 11.890625 -12.128906 11.644531 -12.726562 11.15625 -13.15625 C 10.664062 -13.59375 9.988281 -13.8125 9.125 -13.8125 L 7.140625 -13.8125 Z M 7.140625 -8.90625 "/></g></g></g><g fill="#283389" fill-opacity="1"><g transform="translate(227.979594, 285.634489)"><g><path d="M 0.125 0 L 7.21875 -18.25 L 12.4375 -18.25 L 19.515625 0 L 13.921875 0 L 12.921875 -2.578125 L 6.703125 -2.578125 L 5.703125 0 Z M 7.796875 -6.4375 L 11.859375 -6.4375 L 9.828125 -12.09375 Z M 7.796875 -6.4375 "/></g></g></g><g fill="#283389" fill-opacity="1"><g transform="translate(247.629875, 285.634489)"><g><path d="M 6.78125 0 L 6.78125 -6.328125 L 0.125 -18.25 L 6.046875 -18.25 L 7.96875 -14.46875 L 9.375 -11.703125 L 12.6875 -18.25 L 18.65625 -18.25 L 12.015625 -6.359375 L 12.015625 0 Z M 6.78125 0 "/></g></g></g><g fill="#283389" fill-opacity="1"><g transform="translate(82.539029, 342.871052)"><g><path d="M 12.0625 -0.40625 C 12.113281 -0.28125 12.113281 -0.175781 12.0625 -0.09375 C 12.019531 -0.0195312 11.929688 0.015625 11.796875 0.015625 L 10.03125 0.015625 C 9.9375 0.015625 9.851562 -0.015625 9.78125 -0.078125 C 9.707031 -0.140625 9.648438 -0.210938 9.609375 -0.296875 L 9.109375 -1.515625 L 3.390625 -1.515625 L 2.890625 -0.3125 C 2.847656 -0.226562 2.789062 -0.148438 2.71875 -0.078125 C 2.644531 -0.015625 2.554688 0.015625 2.453125 0.015625 L 0.703125 0.015625 C 0.566406 0.015625 0.472656 -0.0195312 0.421875 -0.09375 C 0.367188 -0.175781 0.367188 -0.28125 0.421875 -0.40625 L 5.734375 -12.296875 C 5.773438 -12.398438 5.835938 -12.476562 5.921875 -12.53125 C 6.003906 -12.59375 6.09375 -12.625 6.1875 -12.625 L 6.296875 -12.625 C 6.390625 -12.625 6.472656 -12.59375 6.546875 -12.53125 C 6.628906 -12.46875 6.691406 -12.390625 6.734375 -12.296875 Z M 4.203125 -3.5 L 8.296875 -3.5 L 6.25 -8.46875 Z M 4.203125 -3.5 "/></g></g></g><g fill="#283389" fill-opacity="1"><g transform="translate(103.927418, 342.871052)"><g><path d="M 3.796875 -12.203125 L 3.796875 -0.265625 C 3.796875 -0.078125 3.703125 0.015625 3.515625 0.015625 L 1.75 0.015625 C 1.570312 0.015625 1.484375 -0.078125 1.484375 -0.265625 L 1.484375 -12.203125 C 1.484375 -12.378906 1.570312 -12.46875 1.75 -12.46875 L 3.515625 -12.46875 C 3.703125 -12.46875 3.796875 -12.378906 3.796875 -12.203125 Z M 3.796875 -12.203125 "/></g></g></g><g fill="#283389" fill-opacity="1"><g transform="translate(118.10944, 342.871052)"><g/></g></g><g fill="#283389" fill-opacity="1"><g transform="translate(132.29146, 342.871052)"><g><path d="M 5.453125 -12.453125 C 6.242188 -12.453125 6.972656 -12.332031 7.640625 -12.09375 C 8.304688 -11.851562 8.882812 -11.507812 9.375 -11.0625 C 9.875 -10.625 10.257812 -10.101562 10.53125 -9.5 C 10.800781 -8.894531 10.9375 -8.234375 10.9375 -7.515625 C 10.9375 -6.804688 10.800781 -6.148438 10.53125 -5.546875 C 10.257812 -4.953125 9.875 -4.4375 9.375 -4 C 8.882812 -3.5625 8.304688 -3.222656 7.640625 -2.984375 C 6.972656 -2.742188 6.242188 -2.625 5.453125 -2.625 L 3.8125 -2.625 L 3.8125 -0.359375 C 3.8125 -0.253906 3.773438 -0.164062 3.703125 -0.09375 C 3.640625 -0.0195312 3.546875 0.015625 3.421875 0.015625 L 1.859375 0.015625 C 1.742188 0.015625 1.648438 -0.015625 1.578125 -0.078125 C 1.515625 -0.148438 1.484375 -0.242188 1.484375 -0.359375 L 1.484375 -12.09375 C 1.484375 -12.207031 1.515625 -12.296875 1.578125 -12.359375 C 1.648438 -12.421875 1.742188 -12.453125 1.859375 -12.453125 L 2.703125 -12.453125 C 2.867188 -12.453125 3.019531 -12.453125 3.15625 -12.453125 C 3.289062 -12.453125 3.394531 -12.453125 3.46875 -12.453125 Z M 5.296875 -4.671875 C 5.773438 -4.671875 6.21875 -4.738281 6.625 -4.875 C 7.03125 -5.007812 7.378906 -5.203125 7.671875 -5.453125 C 7.972656 -5.710938 8.207031 -6.015625 8.375 -6.359375 C 8.539062 -6.710938 8.625 -7.101562 8.625 -7.53125 C 8.625 -7.957031 8.539062 -8.34375 8.375 -8.6875 C 8.207031 -9.039062 7.972656 -9.347656 7.671875 -9.609375 C 7.378906 -9.867188 7.03125 -10.066406 6.625 -10.203125 C 6.21875 -10.347656 5.773438 -10.421875 5.296875 -10.421875 L 3.8125 -10.421875 L 3.8125 -4.671875 Z M 5.296875 -4.671875 "/></g></g></g><g fill="#283389" fill-opacity="1"><g transform="translate(152.827221, 342.871052)"><g><path d="M 9.4375 -2.03125 C 9.613281 -2.03125 9.703125 -1.9375 9.703125 -1.75 L 9.703125 -0.28125 C 9.703125 -0.09375 9.613281 0 9.4375 0 L 1.765625 0 C 1.578125 0 1.484375 -0.09375 1.484375 -0.28125 L 1.484375 -12.203125 C 1.484375 -12.378906 1.578125 -12.46875 1.765625 -12.46875 L 3.53125 -12.46875 C 3.71875 -12.46875 3.8125 -12.378906 3.8125 -12.203125 L 3.8125 -2.03125 Z M 9.4375 -2.03125 "/></g></g></g><g fill="#283389" fill-opacity="1"><g transform="translate(171.747896, 342.871052)"><g><path d="M 12.0625 -0.40625 C 12.113281 -0.28125 12.113281 -0.175781 12.0625 -0.09375 C 12.019531 -0.0195312 11.929688 0.015625 11.796875 0.015625 L 10.03125 0.015625 C 9.9375 0.015625 9.851562 -0.015625 9.78125 -0.078125 C 9.707031 -0.140625 9.648438 -0.210938 9.609375 -0.296875 L 9.109375 -1.515625 L 3.390625 -1.515625 L 2.890625 -0.3125 C 2.847656 -0.226562 2.789062 -0.148438 2.71875 -0.078125 C 2.644531 -0.015625 2.554688 0.015625 2.453125 0.015625 L 0.703125 0.015625 C 0.566406 0.015625 0.472656 -0.0195312 0.421875 -0.09375 C 0.367188 -0.175781 0.367188 -0.28125 0.421875 -0.40625 L 5.734375 -12.296875 C 5.773438 -12.398438 5.835938 -12.476562 5.921875 -12.53125 C 6.003906 -12.59375 6.09375 -12.625 6.1875 -12.625 L 6.296875 -12.625 C 6.390625 -12.625 6.472656 -12.59375 6.546875 -12.53125 C 6.628906 -12.46875 6.691406 -12.390625 6.734375 -12.296875 Z M 4.203125 -3.5 L 8.296875 -3.5 L 6.25 -8.46875 Z M 4.203125 -3.5 "/></g></g></g><g fill="#283389" fill-opacity="1"><g transform="translate(193.136286, 342.871052)"><g><path d="M 0.484375 -10.796875 L 0.484375 -12.09375 C 0.484375 -12.332031 0.601562 -12.453125 0.84375 -12.453125 L 9.375 -12.453125 C 9.488281 -12.453125 9.578125 -12.421875 9.640625 -12.359375 C 9.703125 -12.296875 9.734375 -12.207031 9.734375 -12.09375 L 9.734375 -10.796875 C 9.734375 -10.554688 9.613281 -10.4375 9.375 -10.4375 L 6.265625 -10.4375 L 6.265625 -0.359375 C 6.265625 -0.109375 6.140625 0.015625 5.890625 0.015625 L 4.3125 0.015625 C 4.0625 0.015625 3.9375 -0.109375 3.9375 -0.359375 L 3.9375 -10.4375 L 0.84375 -10.4375 C 0.738281 -10.4375 0.648438 -10.46875 0.578125 -10.53125 C 0.515625 -10.59375 0.484375 -10.679688 0.484375 -10.796875 Z M 0.484375 -10.796875 "/></g></g></g><g fill="#283389" fill-opacity="1"><g transform="translate(212.253722, 342.871052)"><g><path d="M 10 -12.453125 C 10.257812 -12.453125 10.390625 -12.332031 10.390625 -12.09375 L 10.390625 -10.625 C 10.390625 -10.382812 10.257812 -10.265625 10 -10.265625 L 3.8125 -10.265625 L 3.8125 -6.140625 L 8.765625 -6.140625 C 8.898438 -6.140625 9.003906 -6.101562 9.078125 -6.03125 C 9.160156 -5.96875 9.203125 -5.867188 9.203125 -5.734375 L 9.203125 -4.375 C 9.203125 -4.257812 9.160156 -4.164062 9.078125 -4.09375 C 9.003906 -4.03125 8.898438 -4 8.765625 -4 L 3.8125 -4 L 3.8125 -0.359375 C 3.8125 -0.117188 3.691406 0 3.453125 0 L 1.859375 0 C 1.609375 0 1.484375 -0.117188 1.484375 -0.359375 L 1.484375 -12.09375 C 1.484375 -12.332031 1.609375 -12.453125 1.859375 -12.453125 Z M 10 -12.453125 "/></g></g></g><g fill="#283389" fill-opacity="1"><g transform="translate(232.182805, 342.871052)"><g><path d="M 0.734375 -6.203125 C 0.734375 -6.929688 0.835938 -7.617188 1.046875 -8.265625 C 1.265625 -8.910156 1.570312 -9.5 1.96875 -10.03125 C 2.363281 -10.5625 2.828125 -11.019531 3.359375 -11.40625 C 3.898438 -11.800781 4.492188 -12.101562 5.140625 -12.3125 C 5.796875 -12.53125 6.484375 -12.640625 7.203125 -12.640625 C 7.921875 -12.640625 8.601562 -12.53125 9.25 -12.3125 C 9.90625 -12.101562 10.5 -11.800781 11.03125 -11.40625 C 11.570312 -11.019531 12.039062 -10.5625 12.4375 -10.03125 C 12.832031 -9.5 13.132812 -8.910156 13.34375 -8.265625 C 13.550781 -7.617188 13.65625 -6.929688 13.65625 -6.203125 C 13.65625 -5.484375 13.550781 -4.800781 13.34375 -4.15625 C 13.132812 -3.507812 12.832031 -2.921875 12.4375 -2.390625 C 12.039062 -1.859375 11.570312 -1.398438 11.03125 -1.015625 C 10.5 -0.628906 9.90625 -0.328125 9.25 -0.109375 C 8.601562 0.0976562 7.921875 0.203125 7.203125 0.203125 C 6.484375 0.203125 5.796875 0.0976562 5.140625 -0.109375 C 4.492188 -0.328125 3.898438 -0.628906 3.359375 -1.015625 C 2.828125 -1.398438 2.363281 -1.859375 1.96875 -2.390625 C 1.570312 -2.921875 1.265625 -3.507812 1.046875 -4.15625 C 0.835938 -4.800781 0.734375 -5.484375 0.734375 -6.203125 Z M 3.046875 -6.203125 C 3.046875 -5.628906 3.148438 -5.09375 3.359375 -4.59375 C 3.578125 -4.101562 3.875 -3.671875 4.25 -3.296875 C 4.632812 -2.921875 5.078125 -2.628906 5.578125 -2.421875 C 6.078125 -2.210938 6.617188 -2.109375 7.203125 -2.109375 C 7.785156 -2.109375 8.328125 -2.210938 8.828125 -2.421875 C 9.328125 -2.628906 9.765625 -2.921875 10.140625 -3.296875 C 10.523438 -3.671875 10.820312 -4.101562 11.03125 -4.59375 C 11.238281 -5.09375 11.34375 -5.628906 11.34375 -6.203125 C 11.34375 -6.796875 11.238281 -7.34375 11.03125 -7.84375 C 10.820312 -8.34375 10.523438 -8.773438 10.140625 -9.140625 C 9.765625 -9.515625 9.328125 -9.804688 8.828125 -10.015625 C 8.328125 -10.234375 7.785156 -10.34375 7.203125 -10.34375 C 6.617188 -10.34375 6.078125 -10.234375 5.578125 -10.015625 C 5.078125 -9.804688 4.632812 -9.515625 4.25 -9.140625 C 3.875 -8.773438 3.578125 -8.34375 3.359375 -7.84375 C 3.148438 -7.34375 3.046875 -6.796875 3.046875 -6.203125 Z M 3.046875 -6.203125 "/></g></g></g><g fill="#283389" fill-opacity="1"><g transform="translate(255.481394, 342.871052)"><g><path d="M 9.3125 -3.6875 L 10.984375 -0.421875 C 11.046875 -0.296875 11.050781 -0.191406 11 -0.109375 C 10.957031 -0.0234375 10.875 0.015625 10.75 0.015625 L 8.9375 0.015625 C 8.863281 0.015625 8.785156 -0.0078125 8.703125 -0.0625 C 8.628906 -0.125 8.566406 -0.203125 8.515625 -0.296875 L 7.234375 -2.9375 C 7.097656 -2.914062 6.957031 -2.898438 6.8125 -2.890625 C 6.675781 -2.878906 6.53125 -2.875 6.375 -2.875 L 3.8125 -2.875 L 3.8125 -0.359375 C 3.8125 -0.242188 3.773438 -0.148438 3.703125 -0.078125 C 3.628906 -0.015625 3.535156 0.015625 3.421875 0.015625 L 1.859375 0.015625 C 1.753906 0.015625 1.664062 -0.015625 1.59375 -0.078125 C 1.519531 -0.148438 1.484375 -0.242188 1.484375 -0.359375 L 1.484375 -12.109375 C 1.484375 -12.210938 1.519531 -12.296875 1.59375 -12.359375 C 1.664062 -12.421875 1.753906 -12.453125 1.859375 -12.453125 L 2.265625 -12.453125 C 2.503906 -12.453125 2.738281 -12.453125 2.96875 -12.453125 C 3.207031 -12.453125 3.375 -12.453125 3.46875 -12.453125 L 6.375 -12.453125 C 7.113281 -12.453125 7.785156 -12.332031 8.390625 -12.09375 C 9.003906 -11.863281 9.535156 -11.53125 9.984375 -11.09375 C 10.441406 -10.664062 10.796875 -10.15625 11.046875 -9.5625 C 11.296875 -8.96875 11.421875 -8.320312 11.421875 -7.625 C 11.421875 -6.78125 11.226562 -6.015625 10.84375 -5.328125 C 10.46875 -4.648438 9.957031 -4.101562 9.3125 -3.6875 Z M 6.234375 -4.8125 C 6.785156 -4.8125 7.273438 -4.929688 7.703125 -5.171875 C 8.140625 -5.410156 8.484375 -5.742188 8.734375 -6.171875 C 8.984375 -6.597656 9.109375 -7.085938 9.109375 -7.640625 C 9.109375 -8.046875 9.035156 -8.414062 8.890625 -8.75 C 8.742188 -9.09375 8.539062 -9.390625 8.28125 -9.640625 C 8.019531 -9.890625 7.710938 -10.082031 7.359375 -10.21875 C 7.015625 -10.363281 6.640625 -10.4375 6.234375 -10.4375 L 3.8125 -10.4375 L 3.8125 -4.8125 Z M 6.234375 -4.8125 "/></g></g></g><g fill="#283389" fill-opacity="1"><g transform="translate(276.820594, 342.871052)"><g><path d="M 14.84375 -0.375 C 14.851562 -0.238281 14.820312 -0.140625 14.75 -0.078125 C 14.6875 -0.015625 14.59375 0.015625 14.46875 0.015625 L 12.890625 0.015625 C 12.773438 0.015625 12.6875 -0.0078125 12.625 -0.0625 C 12.5625 -0.125 12.519531 -0.21875 12.5 -0.34375 L 11.921875 -6.4375 L 8.21875 -0.140625 C 8.144531 -0.0234375 8.082031 0.0546875 8.03125 0.109375 C 7.988281 0.160156 7.914062 0.1875 7.8125 0.1875 C 7.707031 0.1875 7.628906 0.160156 7.578125 0.109375 C 7.535156 0.0546875 7.472656 -0.0234375 7.390625 -0.140625 L 3.703125 -6.421875 L 3.109375 -0.34375 C 3.085938 -0.21875 3.046875 -0.125 2.984375 -0.0625 C 2.929688 -0.0078125 2.847656 0.015625 2.734375 0.015625 L 1.140625 0.015625 C 1.015625 0.015625 0.914062 -0.015625 0.84375 -0.078125 C 0.78125 -0.140625 0.757812 -0.238281 0.78125 -0.375 L 1.984375 -12.34375 C 2.003906 -12.539062 2.109375 -12.640625 2.296875 -12.640625 L 2.34375 -12.640625 C 2.445312 -12.640625 2.515625 -12.613281 2.546875 -12.5625 C 2.585938 -12.507812 2.632812 -12.441406 2.6875 -12.359375 L 7.8125 -3.671875 L 12.921875 -12.359375 C 12.972656 -12.441406 13.019531 -12.507812 13.0625 -12.5625 C 13.101562 -12.613281 13.175781 -12.640625 13.28125 -12.640625 L 13.3125 -12.640625 C 13.5 -12.640625 13.601562 -12.539062 13.625 -12.34375 Z M 14.84375 -0.375 "/></g></g></g></svg>