<svg xmlns="http://www.w3.org/2000/svg" xmlns:xlink="http://www.w3.org/1999/xlink" width="500" zoomAndPan="magnify" viewBox="0 0 375 374.999991" height="500" preserveAspectRatio="xMidYMid meet" version="1.0"><defs><g/><clipPath id="887e5a3623"><path d="M 101 32 L 266 32 L 266 245 L 101 245 Z M 101 32 " clip-rule="nonzero"/></clipPath><clipPath id="0847976b2b"><path d="M 89.609375 50.453125 L 251.308594 26.261719 L 282.050781 231.722656 L 120.351562 255.917969 Z M 89.609375 50.453125 " clip-rule="nonzero"/></clipPath><clipPath id="a40e3ea14a"><path d="M 89.609375 50.453125 L 251.308594 26.261719 L 282.050781 231.722656 L 120.351562 255.917969 Z M 89.609375 50.453125 " clip-rule="nonzero"/></clipPath><clipPath id="c3440886da"><path d="M 146 110 L 222 110 L 222 218 L 146 218 Z M 146 110 " clip-rule="nonzero"/></clipPath><clipPath id="eae2e02b85"><path d="M 89.609375 50.453125 L 251.308594 26.261719 L 282.050781 231.722656 L 120.351562 255.917969 Z M 89.609375 50.453125 " clip-rule="nonzero"/></clipPath><clipPath id="2f9f2d65c5"><path d="M 89.609375 50.453125 L 251.308594 26.261719 L 282.050781 231.722656 L 120.351562 255.917969 Z M 89.609375 50.453125 " clip-rule="nonzero"/></clipPath><clipPath id="fccf70ab0c"><path d="M 40.824219 234.0625 L 337.820312 234.0625 L 337.820312 315.8125 L 40.824219 315.8125 Z M 40.824219 234.0625 " clip-rule="nonzero"/></clipPath><clipPath id="598173251b"><path d="M 81.675781 234.0625 L 296.636719 234.0625 C 319.199219 234.0625 337.488281 252.351562 337.488281 274.914062 C 337.488281 297.476562 319.199219 315.765625 296.636719 315.765625 L 81.675781 315.765625 C 59.113281 315.765625 40.824219 297.476562 40.824219 274.914062 C 40.824219 252.351562 59.113281 234.0625 81.675781 234.0625 Z M 81.675781 234.0625 " clip-rule="nonzero"/></clipPath><clipPath id="56d512e3eb"><path d="M 55.066406 247.640625 L 206.359375 247.640625 L 206.359375 302.191406 L 55.066406 302.191406 Z M 55.066406 247.640625 " clip-rule="nonzero"/></clipPath><clipPath id="138130adf9"><path d="M 82.34375 247.640625 L 179.050781 247.640625 C 194.117188 247.640625 206.328125 259.851562 206.328125 274.917969 C 206.328125 289.980469 194.117188 302.191406 179.050781 302.191406 L 82.34375 302.191406 C 67.277344 302.191406 55.066406 289.980469 55.066406 274.917969 C 55.066406 259.851562 67.277344 247.640625 82.34375 247.640625 Z M 82.34375 247.640625 " clip-rule="nonzero"/></clipPath></defs><g clip-path="url(#887e5a3623)"><g clip-path="url(#0847976b2b)"><g clip-path="url(#a40e3ea14a)"><path fill="#ffffff" d="M 251.457031 82.433594 C 247.078125 68.449219 239.335938 51.453125 230.761719 41.761719 C 226.910156 37.40625 222.726562 34.339844 218.316406 33.261719 C 213.125 31.992188 208.121094 33.316406 203.585938 38.148438 C 199.308594 42.703125 195.460938 50.851562 192.386719 63.722656 L 156.835938 69.042969 C 150.128906 57.632812 144.0625 50.972656 138.644531 47.867188 C 132.894531 44.574219 127.726562 44.769531 123.128906 47.503906 C 119.230469 49.824219 116.125 53.984375 113.714844 59.277344 C 108.316406 71.144531 105.890625 89.859375 105.832031 104.5625 C 102.097656 113.648438 100.683594 123.808594 102.234375 134.175781 L 103.070312 139.746094 C 106.511719 162.765625 123.640625 180.53125 144.9375 185.996094 C 144.878906 190.421875 145.140625 194.707031 145.714844 198.808594 C 147.433594 211.136719 151.980469 221.714844 159.015625 229.558594 C 166.234375 237.613281 175.949219 242.722656 187.804688 243.855469 C 191.96875 244.253906 196.421875 244.148438 201.148438 243.488281 L 201.234375 243.476562 C 205.949219 242.722656 210.234375 241.519531 214.101562 239.921875 C 225.105469 235.363281 232.898438 227.640625 237.445312 217.824219 C 241.875 208.269531 243.128906 196.824219 241.164062 184.527344 C 240.511719 180.445312 239.507812 176.269531 238.15625 172.050781 C 244.4375 168.222656 249.867188 163.207031 254.183594 157.375 C 262.769531 145.773438 266.949219 130.898438 264.65625 115.574219 L 263.820312 110.003906 C 262.25 99.488281 257.828125 90.078125 251.457031 82.433594 Z M 211.769531 45.824219 C 213.171875 44.332031 214.480469 43.867188 215.675781 44.160156 C 217.65625 44.644531 219.945312 46.488281 222.355469 49.210938 C 226.5625 53.972656 230.597656 60.933594 234.03125 68.390625 C 231.78125 67.21875 229.445312 66.191406 227.046875 65.324219 C 227.046875 65.324219 227.050781 65.324219 227.050781 65.324219 C 220.957031 53.328125 214.453125 48.027344 210.210938 62.039062 C 208.28125 61.964844 206.335938 61.992188 204.371094 62.121094 C 206.648438 53.808594 209.152344 48.605469 211.769531 45.824219 Z M 123.9375 63.929688 C 125.445312 60.621094 127.09375 58.191406 128.847656 57.148438 C 129.90625 56.515625 131.296875 56.578125 133.066406 57.59375 C 136.378906 59.492188 140.300781 63.738281 144.917969 71.019531 C 143.375 71.386719 141.859375 71.816406 140.375 72.304688 C 132.429688 60.597656 127.8125 67.109375 125.46875 79.84375 C 122.933594 81.644531 120.558594 83.648438 118.367188 85.824219 C 119.464844 77.644531 121.292969 69.75 123.9375 63.929688 Z M 227.265625 213.113281 C 223.90625 220.367188 218.085938 226.101562 209.832031 229.519531 C 206.714844 230.808594 203.28125 231.777344 199.53125 232.378906 C 195.769531 232.898438 192.203125 232.984375 188.839844 232.660156 C 179.953125 231.808594 172.707031 228.027344 167.371094 222.074219 C 161.847656 215.914062 158.238281 207.367188 156.828125 197.234375 C 156.402344 194.191406 156.179688 191 156.167969 187.679688 C 159.765625 187.851562 163.433594 187.675781 167.125 187.125 L 187.949219 184.007812 L 189.386719 193.601562 C 187.15625 194.679688 185.257812 196.285156 183.820312 198.226562 C 181.515625 201.339844 180.398438 205.339844 181.015625 209.472656 C 181.632812 213.605469 183.867188 217.101562 186.988281 219.40625 C 190.105469 221.710938 194.101562 222.828125 198.234375 222.210938 C 202.371094 221.59375 205.867188 219.355469 208.167969 216.238281 C 210.476562 213.121094 211.59375 209.125 210.976562 204.988281 C 210.355469 200.855469 208.117188 197.359375 205 195.054688 C 203.058594 193.621094 200.769531 192.640625 198.324219 192.261719 L 196.890625 182.671875 L 217.265625 179.621094 C 220.960938 179.070312 224.515625 178.164062 227.910156 176.945312 C 228.871094 180.125 229.589844 183.238281 230.074219 186.269531 C 231.695312 196.371094 230.742188 205.601562 227.265625 213.113281 Z M 194.421875 196.714844 C 197.324219 196.28125 200.132812 197.066406 202.324219 198.6875 C 204.511719 200.308594 206.082031 202.761719 206.515625 205.667969 C 206.949219 208.570312 206.167969 211.375 204.550781 213.566406 C 202.929688 215.757812 200.476562 217.328125 197.570312 217.765625 C 194.667969 218.199219 191.859375 217.414062 189.667969 215.792969 C 187.480469 214.175781 185.910156 211.71875 185.476562 208.8125 C 185.042969 205.910156 185.828125 203.105469 187.441406 200.914062 C 189.0625 198.722656 191.515625 197.152344 194.421875 196.714844 Z M 253.511719 117.238281 C 255.34375 129.488281 251.992188 141.382812 245.125 150.675781 C 238.25 159.96875 227.859375 166.648438 215.605469 168.480469 L 165.457031 175.984375 C 140.941406 179.652344 117.882812 162.59375 114.214844 138.078125 L 113.378906 132.507812 C 111.546875 120.257812 114.898438 108.363281 121.765625 99.070312 C 128.640625 89.78125 139.035156 83.09375 151.285156 81.261719 L 201.433594 73.757812 C 225.949219 70.089844 249.007812 87.148438 252.675781 111.664062 Z M 234.054688 115.214844 L 234.664062 119.289062 C 236.003906 128.242188 233.554688 136.9375 228.53125 143.726562 C 223.507812 150.519531 215.910156 155.402344 206.957031 156.742188 L 170.300781 162.226562 C 152.378906 164.910156 135.519531 152.441406 132.839844 134.519531 L 132.230469 130.445312 C 130.890625 121.488281 133.335938 112.792969 138.363281 106.007812 C 143.386719 99.214844 150.980469 94.332031 159.941406 92.992188 L 196.597656 87.507812 C 214.515625 84.828125 231.371094 97.300781 234.054688 115.214844 Z M 234.054688 115.214844 " fill-opacity="1" fill-rule="evenodd"/></g></g></g><g clip-path="url(#c3440886da)"><g clip-path="url(#eae2e02b85)"><g clip-path="url(#2f9f2d65c5)"><path fill="#292929" d="M 202.324219 198.683594 C 204.507812 200.304688 206.082031 202.757812 206.515625 205.660156 C 206.949219 208.566406 206.164062 211.371094 204.550781 213.5625 C 202.929688 215.753906 200.472656 217.324219 197.570312 217.757812 C 194.667969 218.195312 191.859375 217.410156 189.667969 215.789062 C 187.476562 214.171875 185.910156 211.714844 185.476562 208.808594 C 185.042969 205.90625 185.824219 203.097656 187.441406 200.910156 C 189.058594 198.71875 191.515625 197.144531 194.421875 196.710938 C 197.332031 196.28125 200.136719 197.066406 202.324219 198.683594 Z M 164.136719 118.292969 C 162.167969 117.632812 160.121094 117.511719 158.15625 117.847656 C 156.199219 118.183594 154.332031 118.980469 152.691406 120.179688 C 149.019531 122.867188 146.488281 127.546875 146.84375 133.503906 C 146.878906 134.097656 147.136719 134.597656 147.605469 134.96875 C 148.070312 135.339844 148.617188 135.480469 149.207031 135.382812 L 149.640625 135.308594 C 150.664062 135.136719 151.386719 134.230469 151.328125 133.199219 C 151.09375 128.929688 152.820312 125.644531 155.335938 123.808594 C 156.414062 123.015625 157.636719 122.492188 158.90625 122.273438 C 160.160156 122.054688 161.46875 122.136719 162.730469 122.554688 C 165.804688 123.582031 168.640625 126.636719 170.007812 132.308594 C 170.253906 133.34375 171.257812 134.011719 172.308594 133.835938 L 172.734375 133.765625 C 173.308594 133.671875 173.769531 133.375 174.09375 132.886719 C 174.414062 132.398438 174.507812 131.863281 174.375 131.292969 C 172.597656 123.875 168.570312 119.765625 164.136719 118.292969 Z M 212.035156 111.304688 C 210.117188 110.640625 208.09375 110.425781 206.128906 110.675781 C 204.148438 110.925781 202.230469 111.644531 200.539062 112.851562 C 196.734375 115.558594 194.082031 120.664062 194.554688 128.28125 C 194.589844 128.867188 194.839844 129.351562 195.292969 129.726562 C 195.746094 130.097656 196.269531 130.246094 196.847656 130.167969 L 197.277344 130.109375 C 198.332031 129.972656 199.097656 129.039062 199.03125 127.976562 C 198.679688 122.15625 200.496094 118.398438 203.132812 116.519531 C 204.21875 115.75 205.445312 115.289062 206.707031 115.128906 C 207.984375 114.96875 209.308594 115.113281 210.574219 115.550781 C 213.515625 116.574219 216.128906 119.207031 217.152344 123.359375 C 217.398438 124.367188 218.351562 125.015625 219.382812 124.882812 L 219.820312 124.828125 C 220.410156 124.75 220.890625 124.457031 221.226562 123.964844 C 221.566406 123.472656 221.671875 122.914062 221.527344 122.335938 C 220.125 116.53125 216.335938 112.792969 212.035156 111.304688 Z M 212.035156 111.304688 " fill-opacity="1" fill-rule="nonzero"/></g></g></g><g clip-path="url(#fccf70ab0c)"><g clip-path="url(#598173251b)"><path stroke-linecap="butt" transform="matrix(0.75, 0, 0, 0.75, 40.825007, 234.062197)" fill="none" stroke-linejoin="miter" d="M 54.467706 0.000403427 L 341.082326 0.000403427 C 371.165663 0.000403427 395.551083 24.385823 395.551083 54.46916 C 395.551083 84.552498 371.165663 108.937918 341.082326 108.937918 L 54.467706 108.937918 C 24.384368 108.937918 -0.00105156 84.552498 -0.00105156 54.46916 C -0.00105156 24.385823 24.384368 0.000403427 54.467706 0.000403427 Z M 54.467706 0.000403427 " stroke="#f6f4f1" stroke-width="18" stroke-opacity="1" stroke-miterlimit="4"/></g></g><g clip-path="url(#56d512e3eb)"><g clip-path="url(#138130adf9)"><path fill="#ffffff" d="M 55.066406 247.640625 L 206.359375 247.640625 L 206.359375 302.191406 L 55.066406 302.191406 Z M 55.066406 247.640625 " fill-opacity="1" fill-rule="nonzero"/></g></g><g fill="#0d1334" fill-opacity="1"><g transform="translate(91.668969, 285.429531)"><g><path d="M 0.234375 0 L 7.484375 -18.25 L 11.546875 -18.25 L 18.796875 0 L 14.359375 0 L 13.140625 -3.15625 L 5.890625 -3.15625 L 4.671875 0 Z M 6.953125 -6.40625 L 12.09375 -6.40625 L 9.515625 -13.078125 Z M 6.953125 -6.40625 "/></g></g></g><g fill="#0d1334" fill-opacity="1"><g transform="translate(112.675668, 285.429531)"><g><path d="M 2.1875 0 L 2.1875 -18.25 L 6.328125 -18.25 L 6.328125 -11.234375 L 7.890625 -11.234375 C 8.921875 -11.234375 9.675781 -11.394531 10.15625 -11.71875 C 10.632812 -12.050781 11.03125 -12.644531 11.34375 -13.5 L 13.0625 -18.25 L 17.546875 -18.25 L 15.015625 -11.75 C 14.785156 -11.164062 14.523438 -10.632812 14.234375 -10.15625 C 13.953125 -9.6875 13.628906 -9.28125 13.265625 -8.9375 L 18.1875 0 L 13.375 0 L 9.453125 -7.40625 C 9.296875 -7.382812 9.144531 -7.375 9 -7.375 C 8.851562 -7.375 8.691406 -7.375 8.515625 -7.375 L 6.328125 -7.375 L 6.328125 0 Z M 2.1875 0 "/></g></g></g><g fill="#0d1334" fill-opacity="1"><g transform="translate(133.604181, 285.429531)"><g><path d="M 6.953125 0 L 6.953125 -6.390625 L 0.234375 -18.25 L 4.953125 -18.25 L 7.21875 -14.015625 L 9.046875 -10.71875 L 10.84375 -14.015625 L 13.078125 -18.25 L 17.796875 -18.25 L 11.109375 -6.4375 L 11.109375 0 Z M 6.953125 0 "/></g></g></g><g fill="#0d1334" fill-opacity="1"><g transform="translate(153.620508, 285.429531)"><g><path d="M 0.234375 0 L 7.484375 -18.25 L 11.546875 -18.25 L 18.796875 0 L 14.359375 0 L 13.140625 -3.15625 L 5.890625 -3.15625 L 4.671875 0 Z M 6.953125 -6.40625 L 12.09375 -6.40625 L 9.515625 -13.078125 Z M 6.953125 -6.40625 "/></g></g></g><g fill="#0d1334" fill-opacity="1"><g transform="translate(174.627207, 285.429531)"><g><path d="M 2.1875 0 L 2.1875 -18.25 L 5.703125 -18.25 L 13.765625 -7.140625 L 13.765625 -18.25 L 17.875 -18.25 L 17.875 0 L 14.359375 0 L 6.3125 -11.1875 L 6.3125 0 Z M 2.1875 0 "/></g></g></g><g fill="#f6f4f1" fill-opacity="1"><g transform="translate(210.179663, 285.634489)"><g><path d="M 1.921875 0 L 1.921875 -18.25 L 9.609375 -18.25 C 11.160156 -18.25 12.503906 -17.96875 13.640625 -17.40625 C 14.773438 -16.851562 15.648438 -16.0625 16.265625 -15.03125 C 16.890625 -14.007812 17.203125 -12.796875 17.203125 -11.390625 C 17.203125 -9.992188 16.890625 -8.78125 16.265625 -7.75 C 15.648438 -6.71875 14.773438 -5.921875 13.640625 -5.359375 C 12.503906 -4.796875 11.160156 -4.515625 9.609375 -4.515625 L 7.1875 -4.515625 L 7.1875 0 Z M 7.140625 -8.90625 L 9.125 -8.90625 C 9.988281 -8.90625 10.664062 -9.125 11.15625 -9.5625 C 11.644531 -10 11.890625 -10.597656 11.890625 -11.359375 C 11.890625 -12.128906 11.644531 -12.726562 11.15625 -13.15625 C 10.664062 -13.59375 9.988281 -13.8125 9.125 -13.8125 L 7.140625 -13.8125 Z M 7.140625 -8.90625 "/></g></g></g><g fill="#f6f4f1" fill-opacity="1"><g transform="translate(227.979594, 285.634489)"><g><path d="M 0.125 0 L 7.21875 -18.25 L 12.4375 -18.25 L 19.515625 0 L 13.921875 0 L 12.921875 -2.578125 L 6.703125 -2.578125 L 5.703125 0 Z M 7.796875 -6.4375 L 11.859375 -6.4375 L 9.828125 -12.09375 Z M 7.796875 -6.4375 "/></g></g></g><g fill="#f6f4f1" fill-opacity="1"><g transform="translate(247.629875, 285.634489)"><g><path d="M 6.78125 0 L 6.78125 -6.328125 L 0.125 -18.25 L 6.046875 -18.25 L 7.96875 -14.46875 L 9.375 -11.703125 L 12.6875 -18.25 L 18.65625 -18.25 L 12.015625 -6.359375 L 12.015625 0 Z M 6.78125 0 "/></g></g></g><g fill="#dbdbdb" fill-opacity="1"><g transform="translate(82.539029, 342.871052)"><g><path d="M 12.0625 -0.40625 C 12.113281 -0.28125 12.113281 -0.175781 12.0625 -0.09375 C 12.019531 -0.0195312 11.929688 0.015625 11.796875 0.015625 L 10.03125 0.015625 C 9.9375 0.015625 9.851562 -0.015625 9.78125 -0.078125 C 9.707031 -0.140625 9.648438 -0.210938 9.609375 -0.296875 L 9.109375 -1.515625 L 3.390625 -1.515625 L 2.890625 -0.3125 C 2.847656 -0.226562 2.789062 -0.148438 2.71875 -0.078125 C 2.644531 -0.015625 2.554688 0.015625 2.453125 0.015625 L 0.703125 0.015625 C 0.566406 0.015625 0.472656 -0.0195312 0.421875 -0.09375 C 0.367188 -0.175781 0.367188 -0.28125 0.421875 -0.40625 L 5.734375 -12.296875 C 5.773438 -12.398438 5.835938 -12.476562 5.921875 -12.53125 C 6.003906 -12.59375 6.09375 -12.625 6.1875 -12.625 L 6.296875 -12.625 C 6.390625 -12.625 6.472656 -12.59375 6.546875 -12.53125 C 6.628906 -12.46875 6.691406 -12.390625 6.734375 -12.296875 Z M 4.203125 -3.5 L 8.296875 -3.5 L 6.25 -8.46875 Z M 4.203125 -3.5 "/></g></g></g><g fill="#dbdbdb" fill-opacity="1"><g transform="translate(103.927418, 342.871052)"><g><path d="M 3.796875 -12.203125 L 3.796875 -0.265625 C 3.796875 -0.078125 3.703125 0.015625 3.515625 0.015625 L 1.75 0.015625 C 1.570312 0.015625 1.484375 -0.078125 1.484375 -0.265625 L 1.484375 -12.203125 C 1.484375 -12.378906 1.570312 -12.46875 1.75 -12.46875 L 3.515625 -12.46875 C 3.703125 -12.46875 3.796875 -12.378906 3.796875 -12.203125 Z M 3.796875 -12.203125 "/></g></g></g><g fill="#dbdbdb" fill-opacity="1"><g transform="translate(118.10944, 342.871052)"><g/></g></g><g fill="#dbdbdb" fill-opacity="1"><g transform="translate(132.29146, 342.871052)"><g><path d="M 5.453125 -12.453125 C 6.242188 -12.453125 6.972656 -12.332031 7.640625 -12.09375 C 8.304688 -11.851562 8.882812 -11.507812 9.375 -11.0625 C 9.875 -10.625 10.257812 -10.101562 10.53125 -9.5 C 10.800781 -8.894531 10.9375 -8.234375 10.9375 -7.515625 C 10.9375 -6.804688 10.800781 -6.148438 10.53125 -5.546875 C 10.257812 -4.953125 9.875 -4.4375 9.375 -4 C 8.882812 -3.5625 8.304688 -3.222656 7.640625 -2.984375 C 6.972656 -2.742188 6.242188 -2.625 5.453125 -2.625 L 3.8125 -2.625 L 3.8125 -0.359375 C 3.8125 -0.253906 3.773438 -0.164062 3.703125 -0.09375 C 3.640625 -0.0195312 3.546875 0.015625 3.421875 0.015625 L 1.859375 0.015625 C 1.742188 0.015625 1.648438 -0.015625 1.578125 -0.078125 C 1.515625 -0.148438 1.484375 -0.242188 1.484375 -0.359375 L 1.484375 -12.09375 C 1.484375 -12.207031 1.515625 -12.296875 1.578125 -12.359375 C 1.648438 -12.421875 1.742188 -12.453125 1.859375 -12.453125 L 2.703125 -12.453125 C 2.867188 -12.453125 3.019531 -12.453125 3.15625 -12.453125 C 3.289062 -12.453125 3.394531 -12.453125 3.46875 -12.453125 Z M 5.296875 -4.671875 C 5.773438 -4.671875 6.21875 -4.738281 6.625 -4.875 C 7.03125 -5.007812 7.378906 -5.203125 7.671875 -5.453125 C 7.972656 -5.710938 8.207031 -6.015625 8.375 -6.359375 C 8.539062 -6.710938 8.625 -7.101562 8.625 -7.53125 C 8.625 -7.957031 8.539062 -8.34375 8.375 -8.6875 C 8.207031 -9.039062 7.972656 -9.347656 7.671875 -9.609375 C 7.378906 -9.867188 7.03125 -10.066406 6.625 -10.203125 C 6.21875 -10.347656 5.773438 -10.421875 5.296875 -10.421875 L 3.8125 -10.421875 L 3.8125 -4.671875 Z M 5.296875 -4.671875 "/></g></g></g><g fill="#dbdbdb" fill-opacity="1"><g transform="translate(152.827221, 342.871052)"><g><path d="M 9.4375 -2.03125 C 9.613281 -2.03125 9.703125 -1.9375 9.703125 -1.75 L 9.703125 -0.28125 C 9.703125 -0.09375 9.613281 0 9.4375 0 L 1.765625 0 C 1.578125 0 1.484375 -0.09375 1.484375 -0.28125 L 1.484375 -12.203125 C 1.484375 -12.378906 1.578125 -12.46875 1.765625 -12.46875 L 3.53125 -12.46875 C 3.71875 -12.46875 3.8125 -12.378906 3.8125 -12.203125 L 3.8125 -2.03125 Z M 9.4375 -2.03125 "/></g></g></g><g fill="#dbdbdb" fill-opacity="1"><g transform="translate(171.747896, 342.871052)"><g><path d="M 12.0625 -0.40625 C 12.113281 -0.28125 12.113281 -0.175781 12.0625 -0.09375 C 12.019531 -0.0195312 11.929688 0.015625 11.796875 0.015625 L 10.03125 0.015625 C 9.9375 0.015625 9.851562 -0.015625 9.78125 -0.078125 C 9.707031 -0.140625 9.648438 -0.210938 9.609375 -0.296875 L 9.109375 -1.515625 L 3.390625 -1.515625 L 2.890625 -0.3125 C 2.847656 -0.226562 2.789062 -0.148438 2.71875 -0.078125 C 2.644531 -0.015625 2.554688 0.015625 2.453125 0.015625 L 0.703125 0.015625 C 0.566406 0.015625 0.472656 -0.0195312 0.421875 -0.09375 C 0.367188 -0.175781 0.367188 -0.28125 0.421875 -0.40625 L 5.734375 -12.296875 C 5.773438 -12.398438 5.835938 -12.476562 5.921875 -12.53125 C 6.003906 -12.59375 6.09375 -12.625 6.1875 -12.625 L 6.296875 -12.625 C 6.390625 -12.625 6.472656 -12.59375 6.546875 -12.53125 C 6.628906 -12.46875 6.691406 -12.390625 6.734375 -12.296875 Z M 4.203125 -3.5 L 8.296875 -3.5 L 6.25 -8.46875 Z M 4.203125 -3.5 "/></g></g></g><g fill="#dbdbdb" fill-opacity="1"><g transform="translate(193.136286, 342.871052)"><g><path d="M 0.484375 -10.796875 L 0.484375 -12.09375 C 0.484375 -12.332031 0.601562 -12.453125 0.84375 -12.453125 L 9.375 -12.453125 C 9.488281 -12.453125 9.578125 -12.421875 9.640625 -12.359375 C 9.703125 -12.296875 9.734375 -12.207031 9.734375 -12.09375 L 9.734375 -10.796875 C 9.734375 -10.554688 9.613281 -10.4375 9.375 -10.4375 L 6.265625 -10.4375 L 6.265625 -0.359375 C 6.265625 -0.109375 6.140625 0.015625 5.890625 0.015625 L 4.3125 0.015625 C 4.0625 0.015625 3.9375 -0.109375 3.9375 -0.359375 L 3.9375 -10.4375 L 0.84375 -10.4375 C 0.738281 -10.4375 0.648438 -10.46875 0.578125 -10.53125 C 0.515625 -10.59375 0.484375 -10.679688 0.484375 -10.796875 Z M 0.484375 -10.796875 "/></g></g></g><g fill="#dbdbdb" fill-opacity="1"><g transform="translate(212.253722, 342.871052)"><g><path d="M 10 -12.453125 C 10.257812 -12.453125 10.390625 -12.332031 10.390625 -12.09375 L 10.390625 -10.625 C 10.390625 -10.382812 10.257812 -10.265625 10 -10.265625 L 3.8125 -10.265625 L 3.8125 -6.140625 L 8.765625 -6.140625 C 8.898438 -6.140625 9.003906 -6.101562 9.078125 -6.03125 C 9.160156 -5.96875 9.203125 -5.867188 9.203125 -5.734375 L 9.203125 -4.375 C 9.203125 -4.257812 9.160156 -4.164062 9.078125 -4.09375 C 9.003906 -4.03125 8.898438 -4 8.765625 -4 L 3.8125 -4 L 3.8125 -0.359375 C 3.8125 -0.117188 3.691406 0 3.453125 0 L 1.859375 0 C 1.609375 0 1.484375 -0.117188 1.484375 -0.359375 L 1.484375 -12.09375 C 1.484375 -12.332031 1.609375 -12.453125 1.859375 -12.453125 Z M 10 -12.453125 "/></g></g></g><g fill="#dbdbdb" fill-opacity="1"><g transform="translate(232.182805, 342.871052)"><g><path d="M 0.734375 -6.203125 C 0.734375 -6.929688 0.835938 -7.617188 1.046875 -8.265625 C 1.265625 -8.910156 1.570312 -9.5 1.96875 -10.03125 C 2.363281 -10.5625 2.828125 -11.019531 3.359375 -11.40625 C 3.898438 -11.800781 4.492188 -12.101562 5.140625 -12.3125 C 5.796875 -12.53125 6.484375 -12.640625 7.203125 -12.640625 C 7.921875 -12.640625 8.601562 -12.53125 9.25 -12.3125 C 9.90625 -12.101562 10.5 -11.800781 11.03125 -11.40625 C 11.570312 -11.019531 12.039062 -10.5625 12.4375 -10.03125 C 12.832031 -9.5 13.132812 -8.910156 13.34375 -8.265625 C 13.550781 -7.617188 13.65625 -6.929688 13.65625 -6.203125 C 13.65625 -5.484375 13.550781 -4.800781 13.34375 -4.15625 C 13.132812 -3.507812 12.832031 -2.921875 12.4375 -2.390625 C 12.039062 -1.859375 11.570312 -1.398438 11.03125 -1.015625 C 10.5 -0.628906 9.90625 -0.328125 9.25 -0.109375 C 8.601562 0.0976562 7.921875 0.203125 7.203125 0.203125 C 6.484375 0.203125 5.796875 0.0976562 5.140625 -0.109375 C 4.492188 -0.328125 3.898438 -0.628906 3.359375 -1.015625 C 2.828125 -1.398438 2.363281 -1.859375 1.96875 -2.390625 C 1.570312 -2.921875 1.265625 -3.507812 1.046875 -4.15625 C 0.835938 -4.800781 0.734375 -5.484375 0.734375 -6.203125 Z M 3.046875 -6.203125 C 3.046875 -5.628906 3.148438 -5.09375 3.359375 -4.59375 C 3.578125 -4.101562 3.875 -3.671875 4.25 -3.296875 C 4.632812 -2.921875 5.078125 -2.628906 5.578125 -2.421875 C 6.078125 -2.210938 6.617188 -2.109375 7.203125 -2.109375 C 7.785156 -2.109375 8.328125 -2.210938 8.828125 -2.421875 C 9.328125 -2.628906 9.765625 -2.921875 10.140625 -3.296875 C 10.523438 -3.671875 10.820312 -4.101562 11.03125 -4.59375 C 11.238281 -5.09375 11.34375 -5.628906 11.34375 -6.203125 C 11.34375 -6.796875 11.238281 -7.34375 11.03125 -7.84375 C 10.820312 -8.34375 10.523438 -8.773438 10.140625 -9.140625 C 9.765625 -9.515625 9.328125 -9.804688 8.828125 -10.015625 C 8.328125 -10.234375 7.785156 -10.34375 7.203125 -10.34375 C 6.617188 -10.34375 6.078125 -10.234375 5.578125 -10.015625 C 5.078125 -9.804688 4.632812 -9.515625 4.25 -9.140625 C 3.875 -8.773438 3.578125 -8.34375 3.359375 -7.84375 C 3.148438 -7.34375 3.046875 -6.796875 3.046875 -6.203125 Z M 3.046875 -6.203125 "/></g></g></g><g fill="#dbdbdb" fill-opacity="1"><g transform="translate(255.481394, 342.871052)"><g><path d="M 9.3125 -3.6875 L 10.984375 -0.421875 C 11.046875 -0.296875 11.050781 -0.191406 11 -0.109375 C 10.957031 -0.0234375 10.875 0.015625 10.75 0.015625 L 8.9375 0.015625 C 8.863281 0.015625 8.785156 -0.0078125 8.703125 -0.0625 C 8.628906 -0.125 8.566406 -0.203125 8.515625 -0.296875 L 7.234375 -2.9375 C 7.097656 -2.914062 6.957031 -2.898438 6.8125 -2.890625 C 6.675781 -2.878906 6.53125 -2.875 6.375 -2.875 L 3.8125 -2.875 L 3.8125 -0.359375 C 3.8125 -0.242188 3.773438 -0.148438 3.703125 -0.078125 C 3.628906 -0.015625 3.535156 0.015625 3.421875 0.015625 L 1.859375 0.015625 C 1.753906 0.015625 1.664062 -0.015625 1.59375 -0.078125 C 1.519531 -0.148438 1.484375 -0.242188 1.484375 -0.359375 L 1.484375 -12.109375 C 1.484375 -12.210938 1.519531 -12.296875 1.59375 -12.359375 C 1.664062 -12.421875 1.753906 -12.453125 1.859375 -12.453125 L 2.265625 -12.453125 C 2.503906 -12.453125 2.738281 -12.453125 2.96875 -12.453125 C 3.207031 -12.453125 3.375 -12.453125 3.46875 -12.453125 L 6.375 -12.453125 C 7.113281 -12.453125 7.785156 -12.332031 8.390625 -12.09375 C 9.003906 -11.863281 9.535156 -11.53125 9.984375 -11.09375 C 10.441406 -10.664062 10.796875 -10.15625 11.046875 -9.5625 C 11.296875 -8.96875 11.421875 -8.320312 11.421875 -7.625 C 11.421875 -6.78125 11.226562 -6.015625 10.84375 -5.328125 C 10.46875 -4.648438 9.957031 -4.101562 9.3125 -3.6875 Z M 6.234375 -4.8125 C 6.785156 -4.8125 7.273438 -4.929688 7.703125 -5.171875 C 8.140625 -5.410156 8.484375 -5.742188 8.734375 -6.171875 C 8.984375 -6.597656 9.109375 -7.085938 9.109375 -7.640625 C 9.109375 -8.046875 9.035156 -8.414062 8.890625 -8.75 C 8.742188 -9.09375 8.539062 -9.390625 8.28125 -9.640625 C 8.019531 -9.890625 7.710938 -10.082031 7.359375 -10.21875 C 7.015625 -10.363281 6.640625 -10.4375 6.234375 -10.4375 L 3.8125 -10.4375 L 3.8125 -4.8125 Z M 6.234375 -4.8125 "/></g></g></g><g fill="#dbdbdb" fill-opacity="1"><g transform="translate(276.820594, 342.871052)"><g><path d="M 14.84375 -0.375 C 14.851562 -0.238281 14.820312 -0.140625 14.75 -0.078125 C 14.6875 -0.015625 14.59375 0.015625 14.46875 0.015625 L 12.890625 0.015625 C 12.773438 0.015625 12.6875 -0.0078125 12.625 -0.0625 C 12.5625 -0.125 12.519531 -0.21875 12.5 -0.34375 L 11.921875 -6.4375 L 8.21875 -0.140625 C 8.144531 -0.0234375 8.082031 0.0546875 8.03125 0.109375 C 7.988281 0.160156 7.914062 0.1875 7.8125 0.1875 C 7.707031 0.1875 7.628906 0.160156 7.578125 0.109375 C 7.535156 0.0546875 7.472656 -0.0234375 7.390625 -0.140625 L 3.703125 -6.421875 L 3.109375 -0.34375 C 3.085938 -0.21875 3.046875 -0.125 2.984375 -0.0625 C 2.929688 -0.0078125 2.847656 0.015625 2.734375 0.015625 L 1.140625 0.015625 C 1.015625 0.015625 0.914062 -0.015625 0.84375 -0.078125 C 0.78125 -0.140625 0.757812 -0.238281 0.78125 -0.375 L 1.984375 -12.34375 C 2.003906 -12.539062 2.109375 -12.640625 2.296875 -12.640625 L 2.34375 -12.640625 C 2.445312 -12.640625 2.515625 -12.613281 2.546875 -12.5625 C 2.585938 -12.507812 2.632812 -12.441406 2.6875 -12.359375 L 7.8125 -3.671875 L 12.921875 -12.359375 C 12.972656 -12.441406 13.019531 -12.507812 13.0625 -12.5625 C 13.101562 -12.613281 13.175781 -12.640625 13.28125 -12.640625 L 13.3125 -12.640625 C 13.5 -12.640625 13.601562 -12.539062 13.625 -12.34375 Z M 14.84375 -0.375 "/></g></g></g></svg>